<svg width="146" height="24" viewBox="0 0 146 24" fill="none" xmlns="http://www.w3.org/2000/svg">
<g clip-path="url(#clip0)">
<path d="M72.0507 15.6523C71.6552 16.126 71.0961 16.4946 70.3735 16.7583C69.6508 17.0171 68.85 17.1465 67.9711 17.1465C67.0483 17.1465 66.2377 16.9463 65.5395 16.5459C64.8461 16.1406 64.309 15.5547 63.9282 14.7881C63.5522 14.0215 63.3593 13.1206 63.3495 12.0854V11.3604C63.3495 10.2959 63.5278 9.37549 63.8842 8.59912C64.2455 7.81787 64.7631 7.22217 65.437 6.81201C66.1157 6.39697 66.9091 6.18945 67.8173 6.18945C69.082 6.18945 70.0707 6.49219 70.7836 7.09766C71.4965 7.69824 71.9189 8.57471 72.0507 9.72705H69.912C69.8144 9.1167 69.5971 8.66992 69.2602 8.38672C68.9282 8.10352 68.4692 7.96191 67.8832 7.96191C67.1362 7.96191 66.5673 8.24268 66.1767 8.8042C65.7861 9.36572 65.5883 10.2007 65.5834 11.3091V11.9902C65.5834 13.1084 65.7958 13.9531 66.2206 14.5244C66.6454 15.0957 67.268 15.3813 68.0883 15.3813C68.9135 15.3813 69.5019 15.2056 69.8535 14.854V13.0156H67.8539V11.397H72.0507V15.6523ZM77.5146 11.1406L79.7338 6.33594H82.1362L78.6352 13.1328V17H76.4013V13.1328L72.9003 6.33594H75.31L77.5146 11.1406ZM85.9814 6.33594L88.7206 14.0703L91.4453 6.33594H94.331V17H92.1264V14.085L92.3461 9.05322L89.4677 17H87.9589L85.0878 9.06055L85.3076 14.085V17H83.1103V6.33594H85.9814ZM98.4472 13.2427V17H96.2499V6.33594H100.41C101.211 6.33594 101.914 6.48242 102.519 6.77539C103.13 7.06836 103.599 7.48584 103.926 8.02783C104.253 8.56494 104.416 9.17773 104.416 9.86621C104.416 10.9111 104.058 11.7363 103.34 12.3418C102.627 12.9424 101.638 13.2427 100.373 13.2427H98.4472ZM98.4472 11.4629H100.41C100.991 11.4629 101.433 11.3262 101.736 11.0527C102.043 10.7793 102.197 10.3887 102.197 9.88086C102.197 9.3584 102.043 8.93604 101.736 8.61377C101.428 8.2915 101.003 8.12549 100.461 8.11572H98.4472V11.4629ZM114.692 11.9097C114.692 12.9595 114.507 13.8799 114.136 14.6709C113.765 15.4619 113.232 16.0723 112.539 16.502C111.851 16.9316 111.06 17.1465 110.166 17.1465C109.282 17.1465 108.494 16.9341 107.8 16.5093C107.107 16.0845 106.57 15.479 106.189 14.6929C105.808 13.9019 105.615 12.9937 105.61 11.9683V11.4409C105.61 10.3911 105.798 9.46826 106.174 8.67236C106.555 7.87158 107.09 7.25879 107.778 6.83398C108.472 6.4043 109.263 6.18945 110.151 6.18945C111.04 6.18945 111.829 6.4043 112.517 6.83398C113.21 7.25879 113.745 7.87158 114.121 8.67236C114.502 9.46826 114.692 10.3887 114.692 11.4336V11.9097ZM112.466 11.4263C112.466 10.3081 112.266 9.4585 111.865 8.87744C111.465 8.29639 110.893 8.00586 110.151 8.00586C109.414 8.00586 108.845 8.29395 108.445 8.87012C108.044 9.44141 107.842 10.2812 107.837 11.3896V11.9097C107.837 12.9985 108.037 13.8433 108.437 14.4438C108.838 15.0444 109.414 15.3447 110.166 15.3447C110.903 15.3447 111.47 15.0566 111.865 14.4805C112.261 13.8994 112.461 13.0547 112.466 11.9463V11.4263ZM118.625 17H116.428V6.33594H118.625V17ZM129.341 17H127.143L122.866 9.9834V17H120.669V6.33594H122.866L127.151 13.3672V6.33594H129.341V17ZM139.067 8.11572H135.801V17H133.603V8.11572H130.381V6.33594H139.067V8.11572Z" fill="#EE4D64"/>
<path fill-rule="evenodd" clip-rule="evenodd" d="M45.7145 5.35477C45.1816 5.35477 44.6766 5.46801 44.226 5.6699C44.1136 3.99982 42.6172 2.67298 40.7929 2.67298C40.259 2.67298 39.7532 2.78659 39.3019 2.98921C39.1738 1.33333 37.6846 0.0221558 35.8713 0.0221558C33.9742 0.0221558 32.4308 1.45695 32.4308 3.22061V8.52232C32.4308 9.02532 32.8695 9.43311 33.4106 9.43311C33.9516 9.43311 34.3903 9.02532 34.3903 8.52232V3.22061C34.3903 2.46137 35.0547 1.84374 35.8713 1.84374C36.688 1.84374 37.3524 2.46137 37.3524 3.22061V17.8091V20.4599C37.3524 21.2192 36.688 21.8368 35.8713 21.8368C35.0547 21.8368 34.3903 21.2192 34.3903 20.4599V15.1582C34.3903 14.6552 33.9516 14.2474 33.4106 14.2474H20.1964C19.6553 14.2474 19.2167 14.6552 19.2167 15.1582C19.2167 15.6612 19.6553 16.069 20.1964 16.069H32.4308V20.4599C32.4308 22.2236 33.9742 23.6584 35.8713 23.6584C37.6847 23.6584 39.1739 22.3472 39.3019 20.6913C39.7532 20.8939 40.259 21.0075 40.7929 21.0075C42.6172 21.0075 44.1136 19.6806 44.226 18.0106C44.6766 18.2125 45.1816 18.3258 45.7145 18.3258C47.6116 18.3258 49.1551 16.891 49.1551 15.1274V8.5531C49.1551 6.78951 47.6116 5.35477 45.7145 5.35477ZM42.2741 17.8091C42.2741 18.5683 41.6097 19.186 40.793 19.186C39.9763 19.186 39.3119 18.5683 39.3119 17.8091V5.87143C39.3119 5.1122 39.9763 4.49456 40.793 4.49456C41.6097 4.49456 42.2741 5.1122 42.2741 5.87143V17.8091ZM45.7145 16.5042C46.5311 16.5042 47.1956 15.8865 47.1956 15.1274V8.5531C47.1956 7.79399 46.5311 7.17635 45.7145 7.17635C44.8979 7.17635 44.2335 7.79399 44.2335 8.5531V15.1274C44.2335 15.8865 44.8979 16.5042 45.7145 16.5042Z" fill="#EE4D64"/>
<path fill-rule="evenodd" clip-rule="evenodd" d="M16.3606 14.2474C15.8196 14.2474 15.3809 14.6552 15.3809 15.1582V20.4599C15.3809 21.2192 14.7165 21.8368 13.8998 21.8368C13.0831 21.8368 12.4187 21.2192 12.4187 20.4599V17.8091V5.87143V3.22061C12.4187 2.46137 13.0831 1.84374 13.8998 1.84374C14.7165 1.84374 15.3809 2.46137 15.3809 3.22061V8.52232C15.3809 9.02532 15.8196 9.43311 16.3606 9.43311H29.5749C30.1159 9.43311 30.5546 9.02532 30.5546 8.52232C30.5546 8.01932 30.1159 7.61153 29.5749 7.61153H17.3404V3.22061C17.3404 1.45695 15.797 0.0221558 13.8998 0.0221558C12.0865 0.0221558 10.5973 1.33333 10.4693 2.98921C10.0179 2.78659 9.51206 2.67298 8.97817 2.67298C7.15391 2.67298 5.65747 3.99994 5.54512 5.6699C5.09445 5.46801 4.58949 5.35477 4.05658 5.35477C2.15943 5.35477 0.616028 6.78957 0.616028 8.55322V15.1274C0.616028 16.891 2.15943 18.3257 4.05658 18.3257C4.58949 18.3257 5.09445 18.2125 5.54512 18.0106C5.65747 19.6806 7.15391 21.0075 8.97817 21.0075C9.51206 21.0075 10.0179 20.8939 10.4693 20.6913C10.5973 22.3471 12.0865 23.6583 13.8998 23.6583C15.797 23.6583 17.3404 22.2235 17.3404 20.4599V15.1581C17.3404 14.6552 16.9018 14.2474 16.3606 14.2474ZM4.05671 16.5042C3.24008 16.5042 2.57562 15.8865 2.57562 15.1274V8.55322C2.57562 7.79399 3.24001 7.17635 4.05671 7.17635C4.87335 7.17635 5.53774 7.79399 5.53774 8.55322V15.1274C5.53768 15.8865 4.87329 16.5042 4.05671 16.5042ZM7.49714 17.8091C7.49714 18.5683 8.16159 19.186 8.97823 19.186C9.79494 19.186 10.4593 18.5683 10.4593 17.8091V5.87143C10.4593 5.1122 9.79494 4.49456 8.97823 4.49456C8.16153 4.49456 7.49714 5.1122 7.49714 5.87143V17.8091Z" fill="#EE4D64"/>
<path d="M15.3781 11.8935V12.1988C15.3781 12.7018 15.8168 13.1096 16.3578 13.1096C16.8989 13.1096 17.3376 12.7018 17.3376 12.1988V11.8935C17.3376 11.3905 16.8989 10.9827 16.3578 10.9827C15.8168 10.9827 15.3781 11.3905 15.3781 11.8935Z" fill="#EE4D64"/>
<path d="M34.3904 11.7922V11.4868C34.3904 10.9838 33.9516 10.576 33.4106 10.576C32.8695 10.576 32.4309 10.9838 32.4309 11.4868V11.7922C32.4309 12.2952 32.8695 12.703 33.4106 12.703C33.9517 12.703 34.3904 12.2952 34.3904 11.7922Z" fill="#EE4D64"/>
</g>
<defs>
<clipPath id="clip0">
<rect x="0.270813" width="145.219" height="24" fill="white"/>
</clipPath>
</defs>
</svg>
